#!OML:ASF H:\Terrain\Walking\May29\JustinRory\Justin.ASF
:FULLY-SPECIFIED
:DEGREES
17
root 13.9815 17.8269 10.8564 -171.813 -4.57629 -176.869
lowerback 4.81647 2.5484 -0.267837
upperback 1.02935 3.35195 1.20924
thorax -1.72638 1.65299 1.18123
lowerneck -11.6773 -5.53994 -13.0111
upperneck 15.9177 -6.22808 4.46659
head 7.37701 -3.48589 2.93326
rclavicle 1.23619e-014 3.67752e-015
rhumerus -26.2565 -9.45796 -77.2231
rradius 37.544
rwrist -12.2459
rhand -12.0183 19.3406
rfingers 7.12502
rthumb 14.0394 -10.1652
lclavicle 1.23619e-014 3.67752e-015
lhumerus -36.7216 13.8915 79.9484
lradius 31.6624
lwrist -9.98973
lhand 3.76228 39.905
lfingers 7.12502
lthumb 29.1887 67.6361
rfemur -6.66959 0.844836 23.4655
rtibia 24.3693
rfoot -20.6195 -5.56926
rtoes -1.83999
lfemur -24.2441 0.476526 -5.8117
ltibia 61.7359
lfoot -5.00703 0.871576
ltoes -10.0834
18
root 14.0227 17.7983 10.7916 -171.796 -4.18999 -176.541
lowerback 4.88798 2.58796 0.259798
upperback 0.941476 3.43226 1.15659
thorax -1.82414 1.69064 0.822429
lowerneck -11.5585 -5.4122 -12.8337
upperneck 15.8658 -6.10517 4.48932
head 7.32168 -3.41569 2.92958
rclavicle -1.90709e-014 -7.8023e-015
rhumerus -26.2123 -9.42449 -77.3423
rradius 37.6755
rwrist -12.2834
rhand -11.7417 19.6988
rfingers 7.12502
rthumb 14.3059 -9.78842
lclavicle -1.90709e-014 -7.8023e-015
lhumerus -36.8855 13.8412 79.9691
lradius 31.7045
lwrist -9.90111
lhand 4.64095 40.3571
lfingers 7.12502
lthumb 30.0274 67.9394
rfemur -6.53417 0.784652 23.9229
rtibia 24.4979
rfoot -20.8914 -5.02507
rtoes -0.756607
lfemur -25.2309 0.905314 -5.79985
ltibia 62.4491
lfoot -5.70905 -0.138964
ltoes -11.5877
19
root 14.0613 17.7838 10.7192 -171.74 -3.96267 -176.304
lowerback 4.80221 2.56466 0.673533
upperback 0.954337 3.41855 1.18472
thorax -1.74023 1.6805 0.626395
lowerneck -11.7056 -5.3679 -12.9205
upperneck 15.9058 -6.01756 4.55993
head 7.35758 -3.37113 2.97352
rclavicle -4.92365e-014 1.98785e-016
rhumerus -26.1095 -9.15115 -77.3505
rradius 37.9952
rwrist -12.5657
rhand -11.5141 20.0059
rfingers 7.12502
rthumb 14.5252 -9.46562
lclavicle -4.92365e-014 1.98785e-016
lhumerus -36.8514 14.061 80.0727
lradius 31.4753
lwrist -10.0238
lhand 5.03801 39.9261
lfingers 7.12502
lthumb 30.4062 67.439
rfemur -6.39827 0.626086 24.2605
rtibia 24.5655
rfoot -21.0192 -4.34062
rtoes 1.04896
lfemur -26.2423 0.975611 -5.93366
ltibia 63.0364
lfoot -6.52391 -0.74454
ltoes -13.4038
20
root 14.0955 17.7824 10.6364 -171.72 -3.63051 -176.251
lowerback 4.63392 2.63003 0.733182
upperback 1.03712 3.50209 1.26765
thorax -1.56347 1.72075 0.683625
lowerneck -11.828 -5.38849 -12.9029
upperneck 15.8437 -6.004 4.44137
head 7.35385 -3.36868 2.93035
rclavicle -2.96065e-014 -7.55382e-015
rhumerus -25.6909 -9.14062 -77.2491
rradius 38.068
rwrist -12.36
rhand -11.8445 19.7887
rfingers 7.12502
rthumb 14.2069 -9.70547
lclavicle -2.96065e-014 -7.55382e-015
lhumerus -36.742 14.0987 80.5094
lradius 31.1985
lwrist -10.3105
lhand 4.79723 39.5953
lfingers 7.12502
lthumb 30.1765 67.1504
rfemur -6.11443 0.766331 24.352
rtibia 24.5762
rfoot -21.1785 -3.72697
rtoes 3.72948
lfemur -27.0741 1.11599 -6.33298
ltibia 63.4588
lfoot -7.29149 -1.20286
ltoes -14.0772
21
root 14.1325 17.7704 10.5592 -171.684 -3.20881 -176.251
lowerback 4.57381 2.68335 0.815533
upperback 1.0699 3.57423 1.24155
thorax -1.49008 1.75631 0.610918
lowerneck -11.6626 -5.29655 -12.9796
upperneck 15.4124 -5.88245 4.58496
head 7.17954 -3.28819 3.00826
rclavicle -1.71203e-014 8.15017e-015
rhumerus -25.3745 -8.96913 -77.3709
rradius 38.2819
rwrist -12.3222
rhand -11.9869 19.4894
rfingers 7.12502
rthumb 14.0696 -10.0143
lclavicle -1.71203e-014 8.15017e-015
lhumerus -36.6883 13.9492 80.8776
lradius 31.0606
lwrist -10.4453
lhand 4.58775 39.4517
lfingers 7.12502
lthumb 29.9767 67.0432
rfemur -5.86769 0.907198 24.4249
rtibia 24.5662
rfoot -21.3729 -3.39026
rtoes 4.46695
lfemur -27.9045 1.54226 -6.76401
ltibia 63.7697
lfoot -7.96541 -1.74158
ltoes -13.3699
22
root 14.1696 17.7545 10.485 -171.569 -2.97055 -176.221
lowerback 4.54501 2.62685 1.02683
upperback 1.07278 3.50707 1.2165
thorax -1.45629 1.72186 0.47324
lowerneck -11.7019 -5.12886 -13.1721
upperneck 15.1325 -5.61439 4.74073
head 7.08102 -3.14539 3.11968
rclavicle -1.01877e-015 -3.8763e-015
rhumerus -25.2412 -8.50521 -77.4191
rradius 38.6347
rwrist -12.8859
rhand -11.3362 19.791
rfingers 7.12502
rthumb 14.6966 -9.66804
lclavicle -1.01877e-015 -3.8763e-015
lhumerus -36.6925 14.0437 81.0306
lradius 31.0554
lwrist -10.473
lhand 4.76891 39.1558
lfingers 7.12502
lthumb 30.1495 66.7159
rfemur -5.75061 0.620681 24.5981
rtibia 24.5191
rfoot -21.4135 -3.43783
rtoes 1.27655
lfemur -28.8606 1.95873 -7.17646
ltibia 63.9513
lfoot -8.76226 -2.27983
ltoes -14.7024
23
root 14.2 17.7379 10.4067 -171.496 -2.83421 -176.21
lowerback 4.49986 2.5954 1.09024
upperback 1.11568 3.46343 1.33894
thorax -1.39073 1.69809 0.569184
lowerneck -11.976 -5.10775 -13.3045
upperneck 15.203 -5.48387 4.50583
head 7.13857 -3.10932 3.07151
rclavicle -2.62396e-014 3.77691e-015
rhumerus -24.9755 -8.03316 -77.2132
rradius 38.9089
rwrist -13.4044
rhand -10.6629 20.139
rfingers 7.12502
rthumb 15.3452 -9.27157
lclavicle -2.62396e-014 3.77691e-015
lhumerus -36.6356 14.3193 81.3254
lradius 30.9616
lwrist -10.6808
lhand 5.12321 38.6362
lfingers 7.12502
lthumb 30.4875 66.1341
rfemur -5.54145 0.241503 24.7114
rtibia 24.4355
rfoot -21.4036 -3.31594
rtoes -0.578471
lfemur -29.7972 2.34029 -7.67269
ltibia 63.9792
lfoot -9.61999 -2.72084
ltoes -15.9544
